<?xml version="1.0" encoding="UTF-8"?>
<svg id="Layer_1" data-name="Layer 1" xmlns="http://www.w3.org/2000/svg" viewBox="0 0 1920 1080">
  <defs>
    <style>
      .cls-1 {
        fill: none;
      }

      .cls-2 {
        fill: #f2ac00;
      }

      .cls-3 {
        fill: #174a6d;
      }
    </style>
  </defs>
  <g>
    <g>
      <path class="cls-3" d="M856.97,539.78c-.16.15-.34.22-.57.22h-21.83c-.22,0-.33.1-.33.31v9.59c0,.21.11.31.33.31h14.31c.22,0,.41.07.57.22.16.14.23.32.23.53v6c0,.21-.08.38-.23.53-.16.14-.34.22-.57.22h-14.31c-.22,0-.33.1-.33.31v10.02c0,.21.11.31.33.31h21.83c.22,0,.41.07.57.22.16.15.23.32.23.53v6c0,.21-.08.38-.23.53-.16.15-.34.22-.57.22h-30.75c-.22,0-.41-.07-.57-.22-.16-.14-.23-.32-.23-.53v-41.81c0-.21.08-.38.23-.53.16-.14.34-.22.57-.22h30.75c.22,0,.41.07.57.22.16.15.23.32.23.53v6c0,.21-.08.38-.23.53Z"/>
      <path class="cls-2" d="M881.76,568.21c.04.08.13.12.27.12h18.04c.22,0,.41.07.57.22.15.15.23.32.23.53v6c0,.21-.08.38-.23.53-.16.15-.34.22-.57.22h-29.95c-.22,0-.41-.07-.57-.22-.16-.14-.23-.32-.23-.53v-5.69c0-.37.13-.68.4-.93,2.17-1.98,4.39-4.13,6.66-6.46,2.26-2.33,3.68-3.78,4.26-4.36,1.24-1.36,2.51-2.66,3.79-3.9,4.04-4.16,6.06-7.26,6.06-9.28,0-1.44-.56-2.63-1.66-3.56-1.11-.93-2.55-1.39-4.33-1.39s-3.22.46-4.33,1.39c-1.11.93-1.66,2.16-1.66,3.68v1.55c0,.21-.08.38-.23.53-.16.15-.34.22-.57.22h-7.85c-.22,0-.41-.07-.57-.22-.16-.14-.23-.32-.23-.53v-2.91c.13-2.23.89-4.2,2.26-5.91,1.37-1.71,3.2-3.02,5.49-3.93,2.28-.91,4.85-1.36,7.69-1.36,3.15,0,5.89.55,8.22,1.64,2.33,1.09,4.13,2.57,5.39,4.42,1.26,1.86,1.9,3.92,1.9,6.19,0,1.73-.47,3.51-1.4,5.32-.93,1.81-2.33,3.77-4.19,5.88-1.38,1.61-2.86,3.2-4.46,4.76-1.6,1.57-3.97,3.83-7.12,6.8l-1,.93c-.09.08-.11.17-.07.25Z"/>
      <path class="cls-3" d="M947.01,532.73c.15.15.23.32.23.53v6.06c0,.21-.08.38-.23.53-.16.15-.34.22-.57.22h-11.91c-.22,0-.33.1-.33.31v34.7c0,.21-.08.38-.23.53-.16.15-.34.22-.57.22h-7.79c-.22,0-.41-.07-.57-.22-.16-.14-.23-.32-.23-.53v-34.7c0-.21-.11-.31-.33-.31h-11.58c-.22,0-.41-.07-.57-.22-.16-.14-.23-.32-.23-.53v-6.06c0-.21.08-.38.23-.53.16-.14.34-.22.57-.22h33.54c.22,0,.41.07.57.22Z"/>
      <path class="cls-3" d="M984.52,575.26l-8.32-17.13c-.09-.17-.22-.25-.4-.25h-6.19c-.22,0-.33.1-.33.31v16.89c0,.21-.08.38-.23.53-.16.15-.34.22-.57.22h-7.79c-.22,0-.41-.07-.57-.22-.16-.14-.23-.32-.23-.53v-41.81c0-.21.08-.38.23-.53.16-.14.34-.22.57-.22h19.03c2.84,0,5.33.54,7.49,1.61,2.15,1.07,3.81,2.6,4.99,4.58,1.18,1.98,1.76,4.27,1.76,6.87,0,2.81-.75,5.21-2.26,7.21-1.51,2-3.62,3.41-6.32,4.24-.22.08-.29.23-.2.43l9.05,17.5c.09.17.13.29.13.37,0,.33-.24.5-.73.5h-8.19c-.44,0-.75-.19-.93-.56ZM969.28,540.31v10.58c0,.21.11.31.33.31h8.72c1.86,0,3.38-.51,4.56-1.55,1.18-1.03,1.76-2.37,1.76-4.02s-.59-3-1.76-4.05c-1.18-1.05-2.7-1.58-4.56-1.58h-8.72c-.22,0-.33.1-.33.31Z"/>
      <path class="cls-3" d="M1037.16,575.2l-2-6.06c-.09-.16-.2-.25-.33-.25h-16.37c-.13,0-.24.08-.33.25l-1.93,6.06c-.13.41-.42.62-.86.62h-8.45c-.27,0-.47-.07-.6-.22-.13-.14-.16-.36-.07-.65l14.38-41.81c.13-.41.42-.62.87-.62h10.45c.44,0,.73.21.87.62l14.38,41.81c.04.08.07.19.07.31,0,.37-.24.56-.73.56h-8.45c-.44,0-.73-.21-.87-.62ZM1020.79,562.14h11.71c.27,0,.35-.12.27-.37l-5.99-18.37c-.04-.16-.11-.24-.2-.22-.09.02-.16.09-.2.22l-5.86,18.37c-.04.25.04.37.27.37Z"/>
      <path class="cls-3" d="M1086.71,532.73c.15.15.23.32.23.53v6.06c0,.21-.08.38-.23.53-.16.15-.34.22-.57.22h-11.91c-.22,0-.33.1-.33.31v34.7c0,.21-.08.38-.23.53-.16.15-.34.22-.57.22h-7.79c-.22,0-.41-.07-.57-.22-.16-.14-.23-.32-.23-.53v-34.7c0-.21-.11-.31-.33-.31h-11.58c-.22,0-.41-.07-.57-.22-.16-.14-.23-.32-.23-.53v-6.06c0-.21.08-.38.23-.53.16-.14.34-.22.57-.22h33.54c.22,0,.41.07.57.22Z"/>
      <path class="cls-3" d="M1131.7,539.78c-.16.15-.34.22-.57.22h-21.83c-.22,0-.33.1-.33.31v9.59c0,.21.11.31.33.31h14.31c.22,0,.41.07.57.22.15.14.23.32.23.53v6c0,.21-.08.38-.23.53-.16.14-.34.22-.57.22h-14.31c-.22,0-.33.1-.33.31v10.02c0,.21.11.31.33.31h21.83c.22,0,.41.07.57.22.15.15.23.32.23.53v6c0,.21-.08.38-.23.53-.16.15-.34.22-.57.22h-30.75c-.22,0-.41-.07-.57-.22-.16-.14-.23-.32-.23-.53v-41.81c0-.21.08-.38.23-.53.16-.14.34-.22.57-.22h30.75c.22,0,.41.07.57.22.15.15.23.32.23.53v6c0,.21-.08.38-.23.53Z"/>
      <path class="cls-3" d="M1152.43,574.39c-2.62-1.28-4.65-3.06-6.09-5.35-1.44-2.29-2.16-4.94-2.16-7.95v-13.86c0-3.01.72-5.67,2.16-7.98,1.44-2.31,3.47-4.09,6.09-5.35,2.62-1.26,5.63-1.89,9.05-1.89s6.36.62,8.95,1.86c2.6,1.24,4.61,2.92,6.06,5.04,1.44,2.12,2.16,4.48,2.16,7.08v.43c0,.21-.08.38-.23.53s-.34.22-.57.22h-7.79c-.22,0-.41-.07-.57-.22-.16-.14-.23-.32-.23-.53v-.19c0-1.9-.71-3.49-2.13-4.79-1.42-1.3-3.31-1.95-5.66-1.95s-4.32.69-5.76,2.07c-1.44,1.38-2.16,3.19-2.16,5.41v14.35c0,2.23.78,4.03,2.33,5.41s3.53,2.07,5.92,2.07,4.15-.57,5.52-1.7c1.38-1.13,2.06-2.71,2.06-4.73v-2.78c0-.21-.11-.31-.33-.31h-7.45c-.22,0-.41-.07-.57-.22-.16-.14-.23-.32-.23-.53v-5.69c0-.21.08-.38.23-.53.16-.14.34-.22.57-.22h16.24c.22,0,.41.07.57.22.16.15.23.32.23.53v8.17c0,3.13-.71,5.86-2.13,8.17-1.42,2.31-3.43,4.07-6.02,5.29-2.59,1.22-5.6,1.83-9.02,1.83s-6.43-.64-9.05-1.92Z"/>
      <path class="cls-3" d="M1192.72,575.6c-.16-.14-.23-.32-.23-.53v-41.81c0-.21.08-.38.23-.53.15-.14.34-.22.57-.22h7.79c.22,0,.41.07.57.22.15.15.23.32.23.53v41.81c0,.21-.08.38-.23.53-.16.15-.34.22-.57.22h-7.79c-.22,0-.41-.07-.57-.22Z"/>
      <path class="cls-3" d="M1245.4,575.2l-2-6.06c-.09-.16-.2-.25-.33-.25h-16.37c-.13,0-.24.08-.33.25l-1.93,6.06c-.13.41-.42.62-.87.62h-8.45c-.27,0-.47-.07-.6-.22-.13-.14-.16-.36-.07-.65l14.38-41.81c.13-.41.42-.62.87-.62h10.45c.44,0,.73.21.87.62l14.38,41.81c.04.08.07.19.07.31,0,.37-.25.56-.73.56h-8.45c-.44,0-.73-.21-.87-.62ZM1229.03,562.14h11.71c.27,0,.35-.12.27-.37l-5.99-18.37c-.04-.16-.11-.24-.2-.22-.09.02-.16.09-.2.22l-5.86,18.37c-.04.25.04.37.27.37Z"/>
      <path class="cls-3" d="M1271.69,574.73c-2.66-1.05-4.71-2.56-6.16-4.52-1.44-1.96-2.16-4.24-2.16-6.83v-1.36c0-.21.08-.38.23-.53.16-.14.34-.22.57-.22h7.59c.22,0,.41.07.57.22.15.14.23.32.23.53v.93c0,1.65.82,3.04,2.46,4.18,1.64,1.13,3.86,1.7,6.66,1.7,2.35,0,4.1-.46,5.26-1.39,1.15-.93,1.73-2.07,1.73-3.43,0-.99-.36-1.83-1.06-2.5-.71-.68-1.67-1.28-2.89-1.79-1.22-.52-3.16-1.23-5.82-2.13-2.97-.95-5.49-1.92-7.55-2.91-2.06-.99-3.79-2.34-5.19-4.05-1.4-1.71-2.1-3.83-2.1-6.34s.69-4.64,2.06-6.5c1.37-1.86,3.28-3.28,5.72-4.27s5.26-1.48,8.45-1.48c3.37,0,6.38.56,9.02,1.67,2.64,1.11,4.7,2.67,6.19,4.67,1.49,2,2.23,4.32,2.23,6.96v.93c0,.21-.08.38-.23.53s-.34.22-.57.22h-7.65c-.22,0-.41-.07-.57-.22-.16-.14-.23-.32-.23-.53v-.49c0-1.73-.77-3.21-2.3-4.42-1.53-1.22-3.63-1.82-6.29-1.82-2.09,0-3.72.41-4.89,1.24-1.18.83-1.76,1.96-1.76,3.4,0,1.03.34,1.9,1.03,2.6.69.7,1.71,1.33,3.06,1.89,1.35.56,3.45,1.31,6.29,2.26,3.15,1.07,5.62,2.02,7.42,2.84,1.8.83,3.42,2.05,4.86,3.68,1.44,1.63,2.16,3.74,2.16,6.34,0,3.88-1.53,6.94-4.59,9.19-3.06,2.25-7.21,3.37-12.45,3.37-3.55,0-6.66-.53-9.32-1.58Z"/>
    </g>
    <g>
      <path class="cls-3" d="M839.24,592.88c1.27.64,2.25,1.54,2.96,2.71.7,1.17,1.05,2.51,1.05,4.04s-.36,2.83-1.07,3.98c-.71,1.16-1.73,2.05-3.03,2.67-1.31.63-2.82.94-4.54.94h-6.35c-.13,0-.2.06-.2.18v9.92c0,.12-.05.23-.14.31-.09.09-.21.13-.34.13h-3.65c-.13,0-.25-.04-.34-.13-.09-.09-.14-.19-.14-.31v-24.96c0-.12.05-.23.14-.31.09-.09.2-.13.34-.13h10.91c1.67,0,3.13.32,4.4.96ZM837.42,602.65c.82-.74,1.23-1.71,1.23-2.91s-.41-2.22-1.23-2.99c-.82-.76-1.9-1.14-3.25-1.14h-5.91c-.13,0-.2.06-.2.18v7.78c0,.12.07.18.2.18h5.91c1.35,0,2.43-.37,3.25-1.11Z"/>
      <path class="cls-3" d="M866.22,617.4l-1.31-3.95c-.05-.1-.12-.15-.2-.15h-10.47c-.08,0-.15.05-.2.15l-1.31,3.95c-.08.25-.25.37-.52.37h-3.97c-.16,0-.28-.04-.36-.13-.08-.09-.09-.21-.04-.39l8.61-24.93c.08-.25.25-.37.52-.37h4.96c.26,0,.44.12.52.37l8.65,24.93s.04.11.04.18c0,.22-.15.33-.44.33h-3.97c-.26,0-.44-.12-.52-.37ZM855.43,609.95h8.05c.16,0,.21-.07.16-.22l-4.09-12.35c-.03-.1-.07-.15-.12-.15s-.09.05-.12.15l-4.05,12.35c-.03.15.03.22.16.22Z"/>
      <path class="cls-3" d="M894.68,592.09c.09.09.14.19.14.31v2.84c0,.12-.05.23-.14.31-.09.09-.21.13-.34.13h-7.3c-.13,0-.2.06-.2.18v21.46c0,.12-.05.23-.14.31-.09.09-.21.13-.34.13h-3.65c-.13,0-.25-.04-.34-.13-.09-.09-.14-.19-.14-.31v-21.46c0-.12-.07-.18-.2-.18h-7.02c-.13,0-.24-.04-.34-.13-.09-.09-.14-.19-.14-.31v-2.84c0-.12.05-.23.14-.31.09-.09.2-.13.34-.13h19.32c.13,0,.24.04.34.13Z"/>
      <path class="cls-3" d="M918.07,617.44l-5.24-10.62c-.05-.1-.13-.15-.24-.15h-4.76c-.13,0-.2.06-.2.18v10.47c0,.12-.05.23-.14.31-.09.09-.21.13-.34.13h-3.65c-.13,0-.24-.04-.34-.13-.09-.09-.14-.19-.14-.31v-24.93c0-.12.05-.23.14-.31.09-.09.2-.13.34-.13h10.91c1.61,0,3.04.31,4.28.94,1.24.63,2.21,1.51,2.9,2.65.69,1.14,1.03,2.45,1.03,3.93,0,1.7-.47,3.14-1.41,4.33-.94,1.19-2.24,2.02-3.91,2.49-.05,0-.09.03-.12.07-.03.05-.03.1,0,.15l5.59,10.73c.05.1.08.17.08.22,0,.2-.15.29-.44.29h-3.81c-.26,0-.45-.11-.56-.33ZM907.64,595.83v7.34c0,.12.07.18.2.18h5.95c1.27,0,2.29-.35,3.07-1.05.78-.7,1.17-1.63,1.17-2.78s-.39-2.09-1.17-2.8c-.78-.71-1.8-1.07-3.07-1.07h-5.95c-.13,0-.2.06-.2.18Z"/>
      <path class="cls-3" d="M931.46,617.64c-.09-.09-.14-.19-.14-.31v-24.93c0-.12.05-.23.14-.31.09-.09.2-.13.34-.13h3.65c.13,0,.24.04.34.13.09.09.14.19.14.31v24.93c0,.12-.05.23-.14.31-.09.09-.21.13-.34.13h-3.65c-.13,0-.24-.04-.34-.13Z"/>
      <path class="cls-3" d="M964.13,591.96h3.65c.13,0,.24.04.34.13.09.09.14.19.14.31v24.93c0,.12-.05.23-.14.31-.09.09-.21.13-.34.13h-3.65c-.13,0-.24-.04-.34-.13s-.14-.19-.14-.31v-17.59c0-.07-.03-.12-.1-.15-.07-.02-.11,0-.14.07l-4.96,7.08c-.13.2-.32.29-.56.29h-1.83c-.24,0-.42-.1-.56-.29l-5-7.04c-.03-.07-.07-.1-.14-.07-.07.03-.1.07-.1.15v17.55c0,.12-.05.23-.14.31-.09.09-.21.13-.34.13h-3.65c-.13,0-.24-.04-.34-.13-.09-.09-.14-.19-.14-.31v-24.93c0-.12.05-.23.14-.31.09-.09.2-.13.34-.13h3.65c.24,0,.42.1.56.29l6.47,9.11c.05.05.11.07.16.07s.09-.02.12-.07l6.47-9.11c.13-.2.32-.29.56-.29Z"/>
      <path class="cls-3" d="M982.14,617.01c-1.53-.75-2.72-1.81-3.55-3.19-.83-1.38-1.25-2.96-1.25-4.76v-8.41c0-1.77.42-3.34,1.27-4.7.85-1.36,2.03-2.42,3.55-3.17,1.52-.75,3.27-1.12,5.26-1.12s3.78.38,5.3,1.12c1.52.75,2.7,1.81,3.55,3.17.85,1.36,1.27,2.93,1.27,4.7v8.41c0,1.79-.42,3.38-1.27,4.76-.85,1.38-2.03,2.44-3.55,3.19-1.52.75-3.29,1.12-5.3,1.12s-3.74-.38-5.28-1.12ZM991.43,613.01c1-.96,1.51-2.22,1.51-3.8v-8.59c0-1.6-.5-2.88-1.51-3.83-1.01-.96-2.34-1.44-4.01-1.44s-2.96.48-3.97,1.44c-1.01.96-1.51,2.24-1.51,3.83v8.59c0,1.57.5,2.84,1.51,3.8,1,.96,2.33,1.44,3.97,1.44s3-.48,4.01-1.44Z"/>
      <path class="cls-3" d="M1022.9,592.09c.09-.09.2-.13.34-.13h3.65c.13,0,.24.04.34.13.09.09.14.19.14.31v24.93c0,.12-.05.23-.14.31-.09.09-.21.13-.34.13h-3.53c-.26,0-.45-.1-.56-.29l-11.43-17.4c-.05-.07-.11-.1-.16-.09-.05.01-.08.07-.08.17l.08,17.18c0,.12-.05.23-.14.31-.09.09-.21.13-.34.13h-3.65c-.13,0-.24-.04-.34-.13-.09-.09-.14-.19-.14-.31v-24.93c0-.12.05-.23.14-.31.09-.09.2-.13.34-.13h3.53c.26,0,.45.1.56.29l11.39,17.4c.05.07.11.11.16.09.05-.01.08-.07.08-.17l-.04-17.18c0-.12.05-.23.14-.31Z"/>
      <path class="cls-3" d="M1037.27,617.64c-.09-.09-.14-.19-.14-.31v-24.93c0-.12.05-.23.14-.31.09-.09.2-.13.34-.13h3.65c.13,0,.24.04.34.13.09.09.14.19.14.31v24.93c0,.12-.05.23-.14.31-.09.09-.21.13-.34.13h-3.65c-.13,0-.24-.04-.34-.13Z"/>
      <path class="cls-3" d="M1068.19,617.4l-1.31-3.95c-.05-.1-.12-.15-.2-.15h-10.47c-.08,0-.15.05-.2.15l-1.31,3.95c-.08.25-.25.37-.52.37h-3.97c-.16,0-.28-.04-.36-.13-.08-.09-.09-.21-.04-.39l8.61-24.93c.08-.25.25-.37.52-.37h4.96c.26,0,.44.12.52.37l8.65,24.93s.04.11.04.18c0,.22-.15.33-.44.33h-3.97c-.26,0-.44-.12-.52-.37ZM1057.4,609.95h8.05c.16,0,.21-.07.16-.22l-4.09-12.35c-.03-.1-.07-.15-.12-.15s-.09.05-.12.15l-4.05,12.35c-.03.15.03.22.16.22Z"/>
      <path class="cls-3" d="M1081.3,617.64c-.09-.09-.14-.19-.14-.31v-24.93c0-.12.05-.23.14-.31.09-.09.2-.13.34-.13h3.65c.13,0,.24.04.34.13.09.09.14.19.14.31v21.5c0,.12.07.18.2.18h13.29c.13,0,.24.04.34.13.09.09.14.19.14.31v2.8c0,.12-.05.23-.14.31s-.21.13-.34.13h-17.61c-.13,0-.24-.04-.34-.13Z"/>
      <path class="cls-3" d="M1126.45,595.52c-.09.09-.21.13-.34.13h-13.53c-.13,0-.2.06-.2.18v6.9c0,.12.07.18.2.18h9.08c.13,0,.24.04.34.13s.14.19.14.31v2.8c0,.12-.05.23-.14.31-.09.09-.21.13-.34.13h-9.08c-.13,0-.2.06-.2.18v7.12c0,.12.07.18.2.18h13.53c.13,0,.24.04.34.13.09.09.14.19.14.31v2.8c0,.12-.05.23-.14.31s-.21.13-.34.13h-17.85c-.13,0-.25-.04-.34-.13-.09-.09-.14-.19-.14-.31v-24.93c0-.12.05-.23.14-.31.09-.09.2-.13.34-.13h17.85c.13,0,.24.04.34.13s.14.19.14.31v2.8c0,.12-.05.23-.14.31Z"/>
      <path class="cls-3" d="M1138.81,617.14c-1.53-.61-2.72-1.47-3.55-2.58s-1.25-2.41-1.25-3.91v-.92c0-.12.05-.23.14-.31s.21-.13.34-.13h3.53c.13,0,.24.04.34.13.09.09.14.19.14.31v.7c0,1.13.54,2.07,1.63,2.82,1.08.75,2.57,1.12,4.44,1.12,1.61,0,2.83-.32,3.65-.96.82-.64,1.23-1.46,1.23-2.47,0-.69-.22-1.27-.67-1.75-.45-.48-1.09-.92-1.92-1.31-.83-.39-2.08-.88-3.75-1.47-1.88-.64-3.4-1.24-4.56-1.81s-2.14-1.33-2.92-2.3c-.78-.97-1.17-2.18-1.17-3.63,0-2.16.85-3.87,2.54-5.13,1.69-1.25,3.95-1.88,6.78-1.88,1.98,0,3.74.32,5.26.96,1.52.64,2.7,1.53,3.55,2.67.85,1.14,1.27,2.46,1.27,3.96v.63c0,.12-.05.23-.14.31s-.21.13-.34.13h-3.57c-.13,0-.25-.04-.34-.13s-.14-.19-.14-.31v-.41c0-1.16-.51-2.13-1.53-2.93s-2.43-1.2-4.22-1.2c-1.46,0-2.59.28-3.39.85s-1.21,1.36-1.21,2.4c0,.74.21,1.34.63,1.81.42.47,1.06.89,1.9,1.27s2.16.87,3.93,1.46c1.88.66,3.38,1.27,4.5,1.81,1.12.54,2.09,1.3,2.9,2.27.81.97,1.21,2.18,1.21,3.63,0,2.21-.88,3.97-2.64,5.27s-4.16,1.95-7.2,1.95c-2.06,0-3.86-.31-5.4-.92Z"/>
    </g>
  </g>
  <g>
    <path class="cls-1" d="M636.54,559.45c-27.74,20.61-3.24,49.84,18.96,63.14-5.7-8.71-12.63-21.72-16.33-38.51-2.05-9.27-2.66-17.64-2.62-24.63Z"/>
    <path class="cls-1" d="M674.83,593.84l5.01,8.23c6.82-18.39,7.57-38.08,9.06-57.35-18.83,10.71-21.95,31-14.07,49.12Z"/>
    <path class="cls-3" d="M653.68,491.89c-25.1,2.12-21.67,37.31,4.31,34.53,23.51-2.52,19.55-36.55-4.31-34.53Z"/>
    <path class="cls-3" d="M738.63,491.89c-22.06,1.2-23.37,31.32-2.76,34.35,28.88,4.25,29.81-35.83,2.76-34.35Z"/>
    <path class="cls-2" d="M697.12,454.37s8.14-1.94,8.14-16.52-8.14-19.93-8.14-19.93c0,0-8.14,5.54-8.14,19.93s8.14,16.52,8.14,16.52Z"/>
    <path class="cls-2" d="M731.71,451.23c9.43-11.65,6.38-20.48,6.38-20.48,0,0-10.09-.12-19.4,11.38-9.31,11.5-4.18,17.75-4.18,17.75,0,0,7.76,3,17.19-8.65Z"/>
    <path class="cls-2" d="M679.72,459.88s5.13-6.24-4.18-17.75c-9.31-11.5-19.4-11.38-19.4-11.38,0,0-3.04,8.82,6.38,20.48,9.43,11.65,17.19,8.65,17.19,8.65Z"/>
    <path class="cls-2" d="M648.83,474.16c14.34,5.9,19.54-.23,19.54-.23,0,0,1.21-7.78-12.95-13.6-14.16-5.83-22.9-1.15-22.9-1.15,0,0,1.97,9.08,16.31,14.99Z"/>
    <path class="cls-2" d="M726.76,473.92s5.2,6.13,19.54.23c14.34-5.9,16.31-14.99,16.31-14.99,0,0-8.74-4.68-22.9,1.15-14.16,5.83-12.95,13.6-12.95,13.6Z"/>
    <g>
      <path class="cls-1" d="M636.54,559.45c-27.74,20.61-3.24,49.84,18.96,63.14-5.7-8.71-12.63-21.72-16.33-38.51-2.05-9.27-2.66-17.64-2.62-24.63Z"/>
      <path class="cls-1" d="M674.83,593.84l5.01,8.23c6.82-18.39,7.57-38.08,9.06-57.35-18.83,10.71-21.95,31-14.07,49.12Z"/>
      <path class="cls-1" d="M706.46,544.71c1.36,19.3,2.82,38.7,8.49,57.36,5.33-5.71,7.97-13.95,8.98-21.38,2.16-15.82-3.08-27.33-17.47-35.98Z"/>
      <path class="cls-3" d="M775.51,550.26c-18.36-20-41.47-7.99-58.83-20.05-2.79-1.94-5.39-4.4-6.98-8-3.53-8.02.59-16.76,4.19-24.39,1.67-3.55,4.44-8.6,8.97-14.14-2.44.54-6.47,1.74-10.58,4.59-4.86,3.38-7.39,7.37-8.55,9.55-.43-5.32-6.19-22.86-6.19-22.86,0,0-5.26,17.98-5.82,22.86-1.41-2.44-4.19-6.46-9.16-9.95-3.7-2.59-7.3-3.96-9.81-4.71,4.24,5.72,6.89,10.89,8.55,14.66,3.69,8.41,7.59,17.3,3.77,25.12-1.76,3.6-4.55,5.96-7.55,7.79-17.93,10.9-38.61-.07-56.86,18.72-39.33,40.5,24.82,83.9,58.09,102.83,2.88,1.64,16.85,9.78,18.91,9.8,2.01.02,4.18-1.53,5.91-2.43,35.3-18.37,112.04-65.7,71.93-109.39ZM636.54,559.45c-.03,6.99.58,15.36,2.62,24.63,3.71,16.79,10.64,29.8,16.33,38.51-22.2-13.3-46.7-42.53-18.96-63.14ZM679.84,602.07l-5.01-8.23c-7.88-18.13-4.77-38.41,14.07-49.12-1.49,19.27-2.24,38.96-9.06,57.35ZM723.94,580.69c-1.01,7.43-3.65,15.67-8.98,21.38-5.67-18.66-7.13-38.05-8.49-57.36,14.39,8.65,19.63,20.16,17.47,35.98ZM739.33,622.84c5.7-8.71,12.63-21.72,16.33-38.51,2.05-9.27,2.66-17.64,2.62-24.63,27.74,20.61,3.24,49.84-18.96,63.14Z"/>
      <path class="cls-1" d="M758.29,559.7c.03,6.99-.58,15.36-2.62,24.63-3.71,16.79-10.64,29.8-16.33,38.51,22.2-13.3,46.7-42.53,18.96-63.14Z"/>
    </g>
  </g>
</svg>