<svg xmlns="http://www.w3.org/2000/svg" id="Layer_1" data-name="Layer 1" viewBox="621.95 421.47 676.11 237.05">
  <defs>
    <style>
      .cls-1 {
        fill: none;
      }

      .cls-2 {
        fill: #f2ac00;
      }

      .cls-3 {
        fill: #044554;
      }
    </style>
  </defs>
  <g>
    <g>
      <path class="cls-3" d="M856.97,539.78c-.16.15-.34.22-.57.22h-21.83c-.22,0-.33.1-.33.31v9.59c0,.21.11.31.33.31h14.31c.22,0,.41.07.57.22.16.14.23.32.23.53v6c0,.21-.08.38-.23.53-.16.14-.34.22-.57.22h-14.31c-.22,0-.33.1-.33.31v10.02c0,.21.11.31.33.31h21.83c.22,0,.41.07.57.22.16.15.23.32.23.53v6c0,.21-.08.38-.23.53-.16.15-.34.22-.57.22h-30.75c-.22,0-.41-.07-.57-.22-.16-.14-.23-.32-.23-.53v-41.81c0-.21.08-.38.23-.53.16-.14.34-.22.57-.22h30.75c.22,0,.41.07.57.22.16.15.23.32.23.53v6c0,.21-.08.38-.23.53Z"/>
      <path class="cls-2" d="M881.76,568.21c.04.08.13.12.27.12h18.04c.22,0,.41.07.57.22.15.15.23.32.23.53v6c0,.21-.08.38-.23.53-.16.15-.34.22-.57.22h-29.95c-.22,0-.41-.07-.57-.22-.16-.14-.23-.32-.23-.53v-5.69c0-.37.13-.68.4-.93,2.17-1.98,4.39-4.13,6.66-6.46,2.26-2.33,3.68-3.78,4.26-4.36,1.24-1.36,2.51-2.66,3.79-3.9,4.04-4.16,6.06-7.26,6.06-9.28,0-1.44-.56-2.63-1.66-3.56-1.11-.93-2.55-1.39-4.33-1.39s-3.22.46-4.33,1.39c-1.11.93-1.66,2.16-1.66,3.68v1.55c0,.21-.08.38-.23.53-.16.15-.34.22-.57.22h-7.85c-.22,0-.41-.07-.57-.22-.16-.14-.23-.32-.23-.53v-2.91c.13-2.23.89-4.2,2.26-5.91,1.37-1.71,3.2-3.02,5.49-3.93,2.28-.91,4.85-1.36,7.69-1.36,3.15,0,5.89.55,8.22,1.64,2.33,1.09,4.13,2.57,5.39,4.42,1.26,1.86,1.9,3.92,1.9,6.19,0,1.73-.47,3.51-1.4,5.32-.93,1.81-2.33,3.77-4.19,5.88-1.38,1.61-2.86,3.2-4.46,4.76-1.6,1.57-3.97,3.83-7.12,6.8l-1,.93c-.09.08-.11.17-.07.25Z"/>
      <path class="cls-3" d="M947.01,532.73c.15.15.23.32.23.53v6.06c0,.21-.08.38-.23.53-.16.15-.34.22-.57.22h-11.91c-.22,0-.33.1-.33.31v34.7c0,.21-.08.38-.23.53-.16.15-.34.22-.57.22h-7.79c-.22,0-.41-.07-.57-.22-.16-.14-.23-.32-.23-.53v-34.7c0-.21-.11-.31-.33-.31h-11.58c-.22,0-.41-.07-.57-.22-.16-.14-.23-.32-.23-.53v-6.06c0-.21.08-.38.23-.53.16-.14.34-.22.57-.22h33.54c.22,0,.41.07.57.22Z"/>
      <path class="cls-3" d="M984.52,575.26l-8.32-17.13c-.09-.17-.22-.25-.4-.25h-6.19c-.22,0-.33.1-.33.31v16.89c0,.21-.08.38-.23.53-.16.15-.34.22-.57.22h-7.79c-.22,0-.41-.07-.57-.22-.16-.14-.23-.32-.23-.53v-41.81c0-.21.08-.38.23-.53.16-.14.34-.22.57-.22h19.03c2.84,0,5.33.54,7.49,1.61,2.15,1.07,3.81,2.6,4.99,4.58,1.18,1.98,1.76,4.27,1.76,6.87,0,2.81-.75,5.21-2.26,7.21-1.51,2-3.62,3.41-6.32,4.24-.22.08-.29.23-.2.43l9.05,17.5c.09.17.13.29.13.37,0,.33-.24.5-.73.5h-8.19c-.44,0-.75-.19-.93-.56ZM969.28,540.31v10.58c0,.21.11.31.33.31h8.72c1.86,0,3.38-.51,4.56-1.55,1.18-1.03,1.76-2.37,1.76-4.02s-.59-3-1.76-4.05c-1.18-1.05-2.7-1.58-4.56-1.58h-8.72c-.22,0-.33.1-.33.31Z"/>
      <path class="cls-3" d="M1037.16,575.2l-2-6.06c-.09-.16-.2-.25-.33-.25h-16.37c-.13,0-.24.08-.33.25l-1.93,6.06c-.13.41-.42.62-.86.62h-8.45c-.27,0-.47-.07-.6-.22-.13-.14-.16-.36-.07-.65l14.38-41.81c.13-.41.42-.62.87-.62h10.45c.44,0,.73.21.87.62l14.38,41.81c.04.08.07.19.07.31,0,.37-.24.56-.73.56h-8.45c-.44,0-.73-.21-.87-.62ZM1020.79,562.14h11.71c.27,0,.35-.12.27-.37l-5.99-18.37c-.04-.16-.11-.24-.2-.22-.09.02-.16.09-.2.22l-5.86,18.37c-.04.25.04.37.27.37Z"/>
      <path class="cls-3" d="M1086.71,532.73c.15.15.23.32.23.53v6.06c0,.21-.08.38-.23.53-.16.15-.34.22-.57.22h-11.91c-.22,0-.33.1-.33.31v34.7c0,.21-.08.38-.23.53-.16.15-.34.22-.57.22h-7.79c-.22,0-.41-.07-.57-.22-.16-.14-.23-.32-.23-.53v-34.7c0-.21-.11-.31-.33-.31h-11.58c-.22,0-.41-.07-.57-.22-.16-.14-.23-.32-.23-.53v-6.06c0-.21.08-.38.23-.53.16-.14.34-.22.57-.22h33.54c.22,0,.41.07.57.22Z"/>
      <path class="cls-3" d="M1131.7,539.78c-.16.15-.34.22-.57.22h-21.83c-.22,0-.33.1-.33.31v9.59c0,.21.11.31.33.31h14.31c.22,0,.41.07.57.22.15.14.23.32.23.53v6c0,.21-.08.38-.23.53-.16.14-.34.22-.57.22h-14.31c-.22,0-.33.1-.33.31v10.02c0,.21.11.31.33.31h21.83c.22,0,.41.07.57.22.15.15.23.32.23.53v6c0,.21-.08.38-.23.53-.16.15-.34.22-.57.22h-30.75c-.22,0-.41-.07-.57-.22-.16-.14-.23-.32-.23-.53v-41.81c0-.21.08-.38.23-.53.16-.14.34-.22.57-.22h30.75c.22,0,.41.07.57.22.15.15.23.32.23.53v6c0,.21-.08.38-.23.53Z"/>
      <path class="cls-3" d="M1152.43,574.39c-2.62-1.28-4.65-3.06-6.09-5.35-1.44-2.29-2.16-4.94-2.16-7.95v-13.86c0-3.01.72-5.67,2.16-7.98,1.44-2.31,3.47-4.09,6.09-5.35,2.62-1.26,5.63-1.89,9.05-1.89s6.36.62,8.95,1.86c2.6,1.24,4.61,2.92,6.06,5.04,1.44,2.12,2.16,4.48,2.16,7.08v.43c0,.21-.08.38-.23.53s-.34.22-.57.22h-7.79c-.22,0-.41-.07-.57-.22-.16-.14-.23-.32-.23-.53v-.19c0-1.9-.71-3.49-2.13-4.79-1.42-1.3-3.31-1.95-5.66-1.95s-4.32.69-5.76,2.07c-1.44,1.38-2.16,3.19-2.16,5.41v14.35c0,2.23.78,4.03,2.33,5.41s3.53,2.07,5.92,2.07,4.15-.57,5.52-1.7c1.38-1.13,2.06-2.71,2.06-4.73v-2.78c0-.21-.11-.31-.33-.31h-7.45c-.22,0-.41-.07-.57-.22-.16-.14-.23-.32-.23-.53v-5.69c0-.21.08-.38.23-.53.16-.14.34-.22.57-.22h16.24c.22,0,.41.07.57.22.16.15.23.32.23.53v8.17c0,3.13-.71,5.86-2.13,8.17-1.42,2.31-3.43,4.07-6.02,5.29-2.59,1.22-5.6,1.83-9.02,1.83s-6.43-.64-9.05-1.92Z"/>
      <path class="cls-3" d="M1192.72,575.6c-.16-.14-.23-.32-.23-.53v-41.81c0-.21.08-.38.23-.53.15-.14.34-.22.57-.22h7.79c.22,0,.41.07.57.22.15.15.23.32.23.53v41.81c0,.21-.08.38-.23.53-.16.15-.34.22-.57.22h-7.79c-.22,0-.41-.07-.57-.22Z"/>
      <path class="cls-3" d="M1245.4,575.2l-2-6.06c-.09-.16-.2-.25-.33-.25h-16.37c-.13,0-.24.08-.33.25l-1.93,6.06c-.13.41-.42.62-.87.62h-8.45c-.27,0-.47-.07-.6-.22-.13-.14-.16-.36-.07-.65l14.38-41.81c.13-.41.42-.62.87-.62h10.45c.44,0,.73.21.87.62l14.38,41.81c.04.08.07.19.07.31,0,.37-.25.56-.73.56h-8.45c-.44,0-.73-.21-.87-.62ZM1229.03,562.14h11.71c.27,0,.35-.12.27-.37l-5.99-18.37c-.04-.16-.11-.24-.2-.22-.09.02-.16.09-.2.22l-5.86,18.37c-.04.25.04.37.27.37Z"/>
      <path class="cls-3" d="M1271.69,574.73c-2.66-1.05-4.71-2.56-6.16-4.52-1.44-1.96-2.16-4.24-2.16-6.83v-1.36c0-.21.08-.38.23-.53.16-.14.34-.22.57-.22h7.59c.22,0,.41.07.57.22.15.14.23.32.23.53v.93c0,1.65.82,3.04,2.46,4.18,1.64,1.13,3.86,1.7,6.66,1.7,2.35,0,4.1-.46,5.26-1.39,1.15-.93,1.73-2.07,1.73-3.43,0-.99-.36-1.83-1.06-2.5-.71-.68-1.67-1.28-2.89-1.79-1.22-.52-3.16-1.23-5.82-2.13-2.97-.95-5.49-1.92-7.55-2.91-2.06-.99-3.79-2.34-5.19-4.05-1.4-1.71-2.1-3.83-2.1-6.34s.69-4.64,2.06-6.5c1.37-1.86,3.28-3.28,5.72-4.27s5.26-1.48,8.45-1.48c3.37,0,6.38.56,9.02,1.67,2.64,1.11,4.7,2.67,6.19,4.67,1.49,2,2.23,4.32,2.23,6.96v.93c0,.21-.08.38-.23.53s-.34.22-.57.22h-7.65c-.22,0-.41-.07-.57-.22-.16-.14-.23-.32-.23-.53v-.49c0-1.73-.77-3.21-2.3-4.42-1.53-1.22-3.63-1.82-6.29-1.82-2.09,0-3.72.41-4.89,1.24-1.18.83-1.76,1.96-1.76,3.4,0,1.03.34,1.9,1.03,2.6.69.7,1.71,1.33,3.06,1.89,1.35.56,3.45,1.31,6.29,2.26,3.15,1.07,5.62,2.02,7.42,2.84,1.8.83,3.42,2.05,4.86,3.68,1.44,1.63,2.16,3.74,2.16,6.34,0,3.88-1.53,6.94-4.59,9.19-3.06,2.25-7.21,3.37-12.45,3.37-3.55,0-6.66-.53-9.32-1.58Z"/>
    </g>
    <g>
      <path class="cls-3" d="M839.24,592.88c1.27.64,2.25,1.54,2.96,2.71.7,1.17,1.05,2.51,1.05,4.04s-.36,2.83-1.07,3.98c-.71,1.16-1.73,2.05-3.03,2.67-1.31.63-2.82.94-4.54.94h-6.35c-.13,0-.2.06-.2.18v9.92c0,.12-.05.23-.14.31-.09.09-.21.13-.34.13h-3.65c-.13,0-.25-.04-.34-.13-.09-.09-.14-.19-.14-.31v-24.96c0-.12.05-.23.14-.31.09-.09.2-.13.34-.13h10.91c1.67,0,3.13.32,4.4.96ZM837.42,602.65c.82-.74,1.23-1.71,1.23-2.91s-.41-2.22-1.23-2.99c-.82-.76-1.9-1.14-3.25-1.14h-5.91c-.13,0-.2.06-.2.18v7.78c0,.12.07.18.2.18h5.91c1.35,0,2.43-.37,3.25-1.11Z"/>
      <path class="cls-3" d="M866.22,617.4l-1.31-3.95c-.05-.1-.12-.15-.2-.15h-10.47c-.08,0-.15.05-.2.15l-1.31,3.95c-.08.25-.25.37-.52.37h-3.97c-.16,0-.28-.04-.36-.13-.08-.09-.09-.21-.04-.39l8.61-24.93c.08-.25.25-.37.52-.37h4.96c.26,0,.44.12.52.37l8.65,24.93s.04.11.04.18c0,.22-.15.33-.44.33h-3.97c-.26,0-.44-.12-.52-.37ZM855.43,609.95h8.05c.16,0,.21-.07.16-.22l-4.09-12.35c-.03-.1-.07-.15-.12-.15s-.09.05-.12.15l-4.05,12.35c-.03.15.03.22.16.22Z"/>
      <path class="cls-3" d="M894.68,592.09c.09.09.14.19.14.31v2.84c0,.12-.05.23-.14.31-.09.09-.21.13-.34.13h-7.3c-.13,0-.2.06-.2.18v21.46c0,.12-.05.23-.14.31-.09.09-.21.13-.34.13h-3.65c-.13,0-.25-.04-.34-.13-.09-.09-.14-.19-.14-.31v-21.46c0-.12-.07-.18-.2-.18h-7.02c-.13,0-.24-.04-.34-.13-.09-.09-.14-.19-.14-.31v-2.84c0-.12.05-.23.14-.31.09-.09.2-.13.34-.13h19.32c.13,0,.24.04.34.13Z"/>
      <path class="cls-3" d="M918.07,617.44l-5.24-10.62c-.05-.1-.13-.15-.24-.15h-4.76c-.13,0-.2.06-.2.18v10.47c0,.12-.05.23-.14.31-.09.09-.21.13-.34.13h-3.65c-.13,0-.24-.04-.34-.13-.09-.09-.14-.19-.14-.31v-24.93c0-.12.05-.23.14-.31.09-.09.2-.13.34-.13h10.91c1.61,0,3.04.31,4.28.94,1.24.63,2.21,1.51,2.9,2.65.69,1.14,1.03,2.45,1.03,3.93,0,1.7-.47,3.14-1.41,4.33-.94,1.19-2.24,2.02-3.91,2.49-.05,0-.09.03-.12.07-.03.05-.03.1,0,.15l5.59,10.73c.05.1.08.17.08.22,0,.2-.15.29-.44.29h-3.81c-.26,0-.45-.11-.56-.33ZM907.64,595.83v7.34c0,.12.07.18.2.18h5.95c1.27,0,2.29-.35,3.07-1.05.78-.7,1.17-1.63,1.17-2.78s-.39-2.09-1.17-2.8c-.78-.71-1.8-1.07-3.07-1.07h-5.95c-.13,0-.2.06-.2.18Z"/>
      <path class="cls-3" d="M931.46,617.64c-.09-.09-.14-.19-.14-.31v-24.93c0-.12.05-.23.14-.31.09-.09.2-.13.34-.13h3.65c.13,0,.24.04.34.13.09.09.14.19.14.31v24.93c0,.12-.05.23-.14.31-.09.09-.21.13-.34.13h-3.65c-.13,0-.24-.04-.34-.13Z"/>
      <path class="cls-3" d="M964.13,591.96h3.65c.13,0,.24.04.34.13.09.09.14.19.14.31v24.93c0,.12-.05.23-.14.31-.09.09-.21.13-.34.13h-3.65c-.13,0-.24-.04-.34-.13s-.14-.19-.14-.31v-17.59c0-.07-.03-.12-.1-.15-.07-.02-.11,0-.14.07l-4.96,7.08c-.13.2-.32.29-.56.29h-1.83c-.24,0-.42-.1-.56-.29l-5-7.04c-.03-.07-.07-.1-.14-.07-.07.03-.1.07-.1.15v17.55c0,.12-.05.23-.14.31-.09.09-.21.13-.34.13h-3.65c-.13,0-.24-.04-.34-.13-.09-.09-.14-.19-.14-.31v-24.93c0-.12.05-.23.14-.31.09-.09.2-.13.34-.13h3.65c.24,0,.42.1.56.29l6.47,9.11c.05.05.11.07.16.07s.09-.02.12-.07l6.47-9.11c.13-.2.32-.29.56-.29Z"/>
      <path class="cls-3" d="M982.14,617.01c-1.53-.75-2.72-1.81-3.55-3.19-.83-1.38-1.25-2.96-1.25-4.76v-8.41c0-1.77.42-3.34,1.27-4.7.85-1.36,2.03-2.42,3.55-3.17,1.52-.75,3.27-1.12,5.26-1.12s3.78.38,5.3,1.12c1.52.75,2.7,1.81,3.55,3.17.85,1.36,1.27,2.93,1.27,4.7v8.41c0,1.79-.42,3.38-1.27,4.76-.85,1.38-2.03,2.44-3.55,3.19-1.52.75-3.29,1.12-5.3,1.12s-3.74-.38-5.28-1.12ZM991.43,613.01c1-.96,1.51-2.22,1.51-3.8v-8.59c0-1.6-.5-2.88-1.51-3.83-1.01-.96-2.34-1.44-4.01-1.44s-2.96.48-3.97,1.44c-1.01.96-1.51,2.24-1.51,3.83v8.59c0,1.57.5,2.84,1.51,3.8,1,.96,2.33,1.44,3.97,1.44s3-.48,4.01-1.44Z"/>
      <path class="cls-3" d="M1022.9,592.09c.09-.09.2-.13.34-.13h3.65c.13,0,.24.04.34.13.09.09.14.19.14.31v24.93c0,.12-.05.23-.14.31-.09.09-.21.13-.34.13h-3.53c-.26,0-.45-.1-.56-.29l-11.43-17.4c-.05-.07-.11-.1-.16-.09-.05.01-.08.07-.08.17l.08,17.18c0,.12-.05.23-.14.31-.09.09-.21.13-.34.13h-3.65c-.13,0-.24-.04-.34-.13-.09-.09-.14-.19-.14-.31v-24.93c0-.12.05-.23.14-.31.09-.09.2-.13.34-.13h3.53c.26,0,.45.1.56.29l11.39,17.4c.05.07.11.11.16.09.05-.01.08-.07.08-.17l-.04-17.18c0-.12.05-.23.14-.31Z"/>
      <path class="cls-3" d="M1037.27,617.64c-.09-.09-.14-.19-.14-.31v-24.93c0-.12.05-.23.14-.31.09-.09.2-.13.34-.13h3.65c.13,0,.24.04.34.13.09.09.14.19.14.31v24.93c0,.12-.05.23-.14.31-.09.09-.21.13-.34.13h-3.65c-.13,0-.24-.04-.34-.13Z"/>
      <path class="cls-3" d="M1068.19,617.4l-1.31-3.95c-.05-.1-.12-.15-.2-.15h-10.47c-.08,0-.15.05-.2.15l-1.31,3.95c-.08.25-.25.37-.52.37h-3.97c-.16,0-.28-.04-.36-.13-.08-.09-.09-.21-.04-.39l8.61-24.93c.08-.25.25-.37.52-.37h4.96c.26,0,.44.12.52.37l8.65,24.93s.04.11.04.18c0,.22-.15.33-.44.33h-3.97c-.26,0-.44-.12-.52-.37ZM1057.4,609.95h8.05c.16,0,.21-.07.16-.22l-4.09-12.35c-.03-.1-.07-.15-.12-.15s-.09.05-.12.15l-4.05,12.35c-.03.15.03.22.16.22Z"/>
      <path class="cls-3" d="M1081.3,617.64c-.09-.09-.14-.19-.14-.31v-24.93c0-.12.05-.23.14-.31.09-.09.2-.13.34-.13h3.65c.13,0,.24.04.34.13.09.09.14.19.14.31v21.5c0,.12.07.18.2.18h13.29c.13,0,.24.04.34.13.09.09.14.19.14.31v2.8c0,.12-.05.23-.14.31s-.21.13-.34.13h-17.61c-.13,0-.24-.04-.34-.13Z"/>
      <path class="cls-3" d="M1126.45,595.52c-.09.09-.21.13-.34.13h-13.53c-.13,0-.2.06-.2.18v6.9c0,.12.07.18.2.18h9.08c.13,0,.24.04.34.13s.14.19.14.31v2.8c0,.12-.05.23-.14.31-.09.09-.21.13-.34.13h-9.08c-.13,0-.2.06-.2.18v7.12c0,.12.07.18.2.18h13.53c.13,0,.24.04.34.13.09.09.14.19.14.31v2.8c0,.12-.05.23-.14.31s-.21.13-.34.13h-17.85c-.13,0-.25-.04-.34-.13-.09-.09-.14-.19-.14-.31v-24.93c0-.12.05-.23.14-.31.09-.09.2-.13.34-.13h17.85c.13,0,.24.04.34.13s.14.19.14.31v2.8c0,.12-.05.23-.14.31Z"/>
      <path class="cls-3" d="M1138.81,617.14c-1.53-.61-2.72-1.47-3.55-2.58s-1.25-2.41-1.25-3.91v-.92c0-.12.05-.23.14-.31s.21-.13.34-.13h3.53c.13,0,.24.04.34.13.09.09.14.19.14.31v.7c0,1.13.54,2.07,1.63,2.82,1.08.75,2.57,1.12,4.44,1.12,1.61,0,2.83-.32,3.65-.96.82-.64,1.23-1.46,1.23-2.47,0-.69-.22-1.27-.67-1.75-.45-.48-1.09-.92-1.92-1.31-.83-.39-2.08-.88-3.75-1.47-1.88-.64-3.4-1.24-4.56-1.81s-2.14-1.33-2.92-2.3c-.78-.97-1.17-2.18-1.17-3.63,0-2.16.85-3.87,2.54-5.13,1.69-1.25,3.95-1.88,6.78-1.88,1.98,0,3.74.32,5.26.96,1.52.64,2.7,1.53,3.55,2.67.85,1.14,1.27,2.46,1.27,3.96v.63c0,.12-.05.23-.14.31s-.21.13-.34.13h-3.57c-.13,0-.25-.04-.34-.13s-.14-.19-.14-.31v-.41c0-1.16-.51-2.13-1.53-2.93s-2.43-1.2-4.22-1.2c-1.46,0-2.59.28-3.39.85s-1.21,1.36-1.21,2.4c0,.74.21,1.34.63,1.81.42.47,1.06.89,1.9,1.27s2.16.87,3.93,1.46c1.88.66,3.38,1.27,4.5,1.81,1.12.54,2.09,1.3,2.9,2.27.81.97,1.21,2.18,1.21,3.63,0,2.21-.88,3.97-2.64,5.27s-4.16,1.95-7.2,1.95c-2.06,0-3.86-.31-5.4-.92Z"/>
    </g>
  </g>
  <path class="cls-1" d="M649.36,558.88c-26.93,20.01-3.15,48.39,18.41,61.3-5.53-8.45-12.26-21.09-15.86-37.39-1.99-9-2.58-17.13-2.55-23.92Z"/>
  <path class="cls-1" d="M686.54,592.27l4.86,7.99c6.62-17.86,7.35-36.98,8.8-55.68-18.29,10.4-21.31,30.1-13.66,47.7Z"/>
  <path class="cls-1" d="M717.25,544.58c1.33,18.74,2.74,37.57,8.25,55.69,5.18-5.55,7.74-13.55,8.72-20.76,2.09-15.36-2.99-26.53-16.96-34.93Z"/>
  <path class="cls-3" d="M666.01,493.29c-24.37,2.06-21.04,36.23,4.18,33.53,22.83-2.44,18.98-35.49-4.18-33.53Z"/>
  <path class="cls-3" d="M748.48,493.29c-21.42,1.17-22.69,30.41-2.68,33.35,28.04,4.12,28.94-34.79,2.68-33.35Z"/>
  <path class="cls-2" d="M708.18,456.86s7.9-1.88,7.9-16.04-7.9-19.35-7.9-19.35c0,0-7.9,5.38-7.9,19.35s7.9,16.04,7.9,16.04Z"/>
  <path class="cls-2" d="M741.76,453.81c9.15-11.31,6.2-19.88,6.2-19.88,0,0-9.79-.12-18.83,11.05s-4.05,17.23-4.05,17.23c0,0,7.53,2.91,16.69-8.4Z"/>
  <path class="cls-2" d="M691.28,462.21s4.98-6.06-4.05-17.23c-9.04-11.17-18.83-11.05-18.83-11.05,0,0-2.96,8.57,6.2,19.88,9.15,11.31,16.69,8.4,16.69,8.4Z"/>
  <path class="cls-2" d="M661.29,476.07c13.93,5.73,18.98-.23,18.98-.23,0,0,1.17-7.55-12.58-13.21s-22.24-1.12-22.24-1.12c0,0,1.91,8.82,15.84,14.55Z"/>
  <path class="cls-2" d="M736.95,475.85s5.05,5.96,18.98.23c13.93-5.73,15.84-14.55,15.84-14.55,0,0-8.49-4.54-22.24,1.12-13.75,5.66-12.58,13.21-12.58,13.21Z"/>
  <g>
    <path class="cls-1" d="M649.36,558.88c-26.93,20.01-3.15,48.39,18.41,61.3-5.53-8.45-12.26-21.09-15.86-37.39-1.99-9-2.58-17.13-2.55-23.92Z"/>
    <path class="cls-1" d="M717.25,544.58c1.33,18.74,2.74,37.57,8.25,55.69,5.18-5.55,7.74-13.55,8.72-20.76,2.09-15.36-2.99-26.53-16.96-34.93Z"/>
    <path class="cls-1" d="M686.54,592.27l4.86,7.99c6.62-17.86,7.35-36.98,8.8-55.68-18.29,10.4-21.31,30.1-13.66,47.7Z"/>
    <path class="cls-3" d="M784.29,549.96c-17.82-19.42-40.26-7.76-57.11-19.46-2.71-1.88-5.24-4.28-6.77-7.77-3.43-7.79.57-16.27,4.07-23.68,1.63-3.44,4.32-8.35,8.71-13.73-2.36.52-6.28,1.69-10.27,4.46-4.72,3.28-7.17,7.15-8.31,9.27-.42-5.16-6.01-22.2-6.01-22.2,0,0-5.11,17.45-5.65,22.2-1.37-2.36-4.07-6.27-8.89-9.66-3.59-2.52-7.08-3.85-9.53-4.57,4.12,5.55,6.69,10.57,8.3,14.23,3.59,8.17,7.37,16.8,3.66,24.39-1.71,3.5-4.42,5.79-7.33,7.56-17.41,10.59-37.49-.07-55.2,18.17-38.19,39.32,24.1,81.46,56.4,99.84,2.8,1.59,16.36,9.49,18.36,9.51,1.95.02,4.06-1.49,5.74-2.36,34.28-17.84,108.78-63.79,69.84-106.21ZM649.36,558.88c-.03,6.78.56,14.91,2.55,23.92,3.6,16.3,10.33,28.93,15.86,37.39-21.55-12.91-45.34-41.29-18.41-61.3ZM691.4,600.26l-4.86-7.99c-7.65-17.6-4.63-37.29,13.66-47.7-1.44,18.71-2.18,37.83-8.8,55.68ZM734.21,579.51c-.98,7.21-3.54,15.21-8.72,20.76-5.5-18.11-6.92-36.95-8.25-55.69,13.97,8.4,19.06,19.57,16.96,34.93ZM749.16,620.43c5.53-8.45,12.26-21.09,15.86-37.39,1.99-9,2.58-17.13,2.55-23.92,26.93,20.01,3.15,48.39-18.41,61.3Z"/>
    <path class="cls-1" d="M767.57,559.13c.03,6.78-.56,14.91-2.55,23.92-3.6,16.3-10.33,28.93-15.86,37.39,21.55-12.91,45.34-41.29,18.41-61.3Z"/>
  </g>
</svg>