<?xml version="1.0" encoding="UTF-8"?>
<svg id="Layer_1" data-name="Layer 1" xmlns="http://www.w3.org/2000/svg" viewBox="0 0 1920 1080">
  <defs>
    <style>
      .cls-1 {
        fill: none;
      }

      .cls-2 {
        fill: #f2ac00;
      }

      .cls-3 {
        fill: #174a6d;
      }
    </style>
  </defs>
  <path class="cls-1" d="M870.53,568.52c-40.67,30.22-4.75,73.08,27.79,92.57-8.35-12.77-18.51-31.84-23.95-56.46-3-13.59-3.9-25.87-3.85-36.11Z"/>
  <path class="cls-1" d="M926.67,618.94l7.34,12.06c9.99-26.97,11.1-55.84,13.28-84.09-27.61,15.71-32.18,45.45-20.63,72.02Z"/>
  <path class="cls-3" d="M895.66,469.46c-36.8,3.11-31.77,54.7,6.31,50.63,34.47-3.69,28.66-53.59-6.31-50.63Z"/>
  <path class="cls-3" d="M1020.2,469.46c-32.34,1.77-34.26,45.92-4.04,50.37,42.34,6.23,43.71-52.53,4.04-50.37Z"/>
  <path class="cls-2" d="M959.34,414.46s11.94-2.84,11.94-24.22-11.94-29.22-11.94-29.22c0,0-11.94,8.12-11.94,29.22s11.94,24.22,11.94,24.22Z"/>
  <path class="cls-2" d="M1010.06,409.85c13.82-17.08,9.36-30.02,9.36-30.02,0,0-14.79-.18-28.44,16.68s-6.12,26.02-6.12,26.02c0,0,11.38,4.4,25.2-12.68Z"/>
  <path class="cls-2" d="M933.83,422.53s7.53-9.15-6.12-26.02c-13.65-16.87-28.44-16.68-28.44-16.68,0,0-4.46,12.94,9.36,30.02,13.82,17.08,25.2,12.68,25.2,12.68Z"/>
  <path class="cls-2" d="M888.55,443.47c21.03,8.65,28.66-.34,28.66-.34,0,0,1.77-11.4-18.99-19.95s-33.58-1.69-33.58-1.69c0,0,2.89,13.32,23.92,21.97Z"/>
  <path class="cls-2" d="M1002.8,443.12s7.63,8.99,28.66.34c21.03-8.65,23.92-21.97,23.92-21.97,0,0-12.82-6.86-33.58,1.69s-18.99,19.95-18.99,19.95Z"/>
  <g>
    <path class="cls-1" d="M870.53,568.52c-40.67,30.22-4.75,73.08,27.79,92.57-8.35-12.77-18.51-31.84-23.95-56.46-3-13.59-3.9-25.87-3.85-36.11Z"/>
    <path class="cls-1" d="M926.67,618.94l7.34,12.06c9.99-26.97,11.1-55.84,13.28-84.09-27.61,15.71-32.18,45.45-20.63,72.02Z"/>
    <path class="cls-1" d="M973.04,546.91c2,28.3,4.14,56.74,12.45,84.09,7.82-8.38,11.68-20.46,13.17-31.34,3.16-23.19-4.52-40.06-25.62-52.75Z"/>
    <path class="cls-3" d="M1074.28,555.04c-26.92-29.32-60.8-11.71-86.25-29.39-4.09-2.84-7.91-6.46-10.23-11.73-5.18-11.76.87-24.57,6.14-35.76,2.45-5.2,6.52-12.6,13.16-20.73-3.57.79-9.48,2.55-15.51,6.74-7.13,4.95-10.83,10.8-12.54,14-.63-7.8-9.07-33.52-9.07-33.52,0,0-7.71,26.36-8.53,33.52-2.07-3.57-6.14-9.47-13.43-14.58-5.42-3.8-10.7-5.81-14.39-6.9,6.22,8.39,10.11,15.97,12.53,21.49,5.41,12.33,11.14,25.37,5.53,36.83-2.58,5.28-6.67,8.74-11.07,11.42-26.29,15.99-56.61-.1-83.36,27.44-57.66,59.38,36.39,123.01,85.16,150.77,4.23,2.41,24.7,14.34,27.72,14.36,2.94.03,6.12-2.25,8.66-3.57,51.76-26.94,164.26-96.33,105.46-160.38ZM870.53,568.52c-.05,10.24.85,22.52,3.85,36.11,5.43,24.62,15.6,43.69,23.95,56.46-32.55-19.5-68.46-62.36-27.79-92.57ZM934.01,631l-7.34-12.06c-11.56-26.58-6.99-56.32,20.63-72.02-2.18,28.25-3.29,57.12-13.28,84.09ZM998.66,599.66c-1.48,10.89-5.35,22.97-13.17,31.34-8.31-27.35-10.45-55.79-12.45-84.09,21.1,12.68,28.78,29.56,25.62,52.75ZM1021.23,661.46c8.35-12.77,18.51-31.84,23.95-56.46,3-13.59,3.9-25.87,3.85-36.11,40.67,30.22,4.75,73.08-27.79,92.57Z"/>
    <path class="cls-1" d="M1049.02,568.88c.05,10.24-.85,22.52-3.85,36.11-5.43,24.62-15.6,43.69-23.95,56.46,32.55-19.5,68.46-62.36,27.79-92.57Z"/>
  </g>
</svg>